<?xml version="1.0" encoding="utf-8"?>
<!-- Generator: Adobe Illustrator 23.0.3, SVG Export Plug-In . SVG Version: 6.00 Build 0)  -->
<svg version="1.1" id="Layer_1" xmlns="http://www.w3.org/2000/svg" xmlns:xlink="http://www.w3.org/1999/xlink" x="0px" y="0px"
	 viewBox="0 0 54 56" style="enable-background:new 0 0 54 56;" xml:space="preserve">
<style type="text/css">
	.st0{fill:#343F35;}
	.st1{fill:#329E41;}
	.st2{fill:#FF0307;}
	.st3{fill:#FF9100;}
	.st4{fill:#FFF700;}
	.st5{fill:#41AF46;}
	.st6{fill:#0068FD;}
	.st7{fill:#D903CA;}
	.st8{fill:#E8E8E8;}
	.st9{fill:#333E34;}
	.st10{fill:#FFFFFF;}
	.st11{fill:#C1C1C1;}
	.st12{fill:#6E1A15;}
	.st13{fill:#FF5240;}
	.st14{fill:#F0D6C3;}
	.st15{fill:#6EC872;}
	.st16{fill:#266826;}
</style>
<g>
	<polygon class="st0" points="0,35 0,23 1,23 1,20 2,20 2,17 3,17 3,15 4,15 4,13 5,13 5,12 6,12 6,11 7,11 7,10 8,10 8,9 9,9 9,8 
		10,8 10,7 11,7 11,6 13,6 13,5 15,5 15,4 18,4 18,3 21,3 21,2 33,2 33,3 36,3 36,4 39,4 39,5 41,5 41,6 43,6 43,7 44,7 44,8 45,8 
		45,9 46,9 46,10 47,10 47,11 48,11 48,12 49,12 49,13 50,13 50,15 51,15 51,17 52,17 52,20 53,20 53,23 54,23 54,35 53,35 53,38 
		52,38 52,41 51,41 51,43 50,43 50,45 49,45 49,46 48,46 48,47 47,47 47,48 46,48 46,49 45,49 45,50 44,50 44,51 43,51 43,52 41,52 
		41,53 39,53 39,54 36,54 36,55 33,55 33,56 21,56 21,55 18,55 18,54 15,54 15,53 13,53 13,52 11,52 11,51 10,51 10,50 9,50 9,49 
		8,49 8,48 7,48 7,47 6,47 6,46 5,46 5,45 4,45 4,43 3,43 3,41 2,41 2,38 1,38 1,35 	"/>
	<polygon class="st1" points="0,34 0,22 1,22 1,19 2,19 2,16 3,16 3,14 4,14 4,12 5,12 5,11 6,11 6,10 7,10 7,9 8,9 8,8 9,8 9,7 
		10,7 10,6 11,6 11,5 13,5 13,4 15,4 15,3 18,3 18,2 21,2 21,1 33,1 33,2 36,2 36,3 39,3 39,4 41,4 41,5 43,5 43,6 44,6 44,7 45,7 
		45,8 46,8 46,9 47,9 47,10 48,10 48,11 49,11 49,12 50,12 50,14 51,14 51,16 52,16 52,19 53,19 53,22 54,22 54,34 53,34 53,37 
		52,37 52,40 51,40 51,42 50,42 50,44 49,44 49,45 48,45 48,46 47,46 47,47 46,47 46,48 45,48 45,49 44,49 44,50 43,50 43,51 41,51 
		41,52 39,52 39,53 36,53 36,54 33,54 33,55 21,55 21,54 18,54 18,53 15,53 15,52 13,52 13,51 11,51 11,50 10,50 10,49 9,49 9,48 
		8,48 8,47 7,47 7,46 6,46 6,45 5,45 5,44 4,44 4,42 3,42 3,40 2,40 2,37 1,37 1,34 	"/>
	<g>
		<polygon class="st2" points="30,14 30,13 31,13 31,12 33,12 33,11 35,11 35,10 38,10 38,9 46,9 46,10 48,10 48,11 49,11 49,12 
			50,12 50,14 51,14 51,17 30,17 		"/>
		<polygon class="st3" points="36,17 38,17 38,16 41,16 41,15 49,15 49,16 52,16 52,19 53,19 53,23 36,23 		"/>
		<polygon class="st4" points="39,22 42,22 42,21 52,21 52,22 54,22 54,29 39,29 		"/>
		<polygon class="st5" points="41,28 44,28 44,27 50,27 50,28 54,28 54,34 53,34 53,36 41,36 		"/>
		<polygon class="st6" points="43,35 45,35 45,34 50,34 50,35 53,35 53,37 52,37 52,40 51,40 51,41 43,41 		"/>
		<polygon class="st7" points="44,41 46,41 46,40 51,40 51,42 50,42 50,44 49,44 49,45 48,45 48,46 44,46 		"/>
	</g>
	<polygon class="st8" points="20,54 20,50 21,50 21,47 22,47 22,42 23,42 23,40 24,40 24,38 25,38 25,36 22,36 22,37 20,37 20,38 
		19,38 19,39 17,39 17,40 14,40 14,41 13,41 13,42 9,42 9,40 8,40 8,39 7,39 7,33 8,33 8,32 9,32 9,31 10,31 10,30 11,30 11,29 
		12,29 12,27 13,27 13,25 14,25 14,23 15,23 15,21 16,21 16,20 17,20 17,19 18,19 18,18 19,18 19,17 20,17 20,16 21,16 21,15 23,15 
		23,14 26,14 31,14 31,15 33,15 33,16 35,16 35,17 37,17 37,18 38,18 38,19 39,19 39,20 40,20 40,22 41,22 41,24 42,24 42,28 43,28 
		43,33 44,33 44,39 45,39 45,42 46,42 46,44 47,44 47,47 46,47 46,48 45,48 45,49 44,49 44,50 43,50 43,51 41,51 41,52 39,52 39,53 
		36,53 36,54 33,54 33,55 21,55 21,54 	"/>
	<polygon class="st9" points="9,40 10,40 10,39 11,39 13,39 16,39 16,38 18,38 18,37 19,37 19,36 20,36 20,35 27,35 27,34 28,34 
		28,33 29,33 29,32 30,32 30,29 32,29 32,32 31,32 31,33 30,33 30,34 29,34 29,35 28,35 28,36 22,36 22,37 20,37 20,38 19,38 19,39 
		17,39 17,40 14,40 14,41 13,41 13,42 9,42 	"/>
	<polygon class="st10" points="23,10 24,10 24,12 25,12 25,13 26,13 26,14 31,14 31,15 33,15 33,16 35,16 35,17 37,17 37,18 38,18 
		38,19 39,19 39,20 40,20 40,22 41,22 41,24 42,24 42,28 43,28 43,33 44,33 44,39 45,39 45,42 46,42 46,44 47,44 47,47 46,47 46,48 
		45,48 45,47 44,47 44,46 43,46 43,45 42,45 42,42 41,42 41,38 40,38 40,34 39,34 39,30.9 38,31 38,24 37,24 37,21 36,21 36,20 
		35,20 35,19 34,19 34,18 33,18 33,17 32,17 32,16 30,16 30,15 27,15 27,16 26,16 26,17 24,17 24,13 22,13 22,9 23,9 	"/>
	<polygon class="st11" points="22,10 23,10 23,12 24,12 24,16 23,16 23,14 22,14 	"/>
	<polygon class="st11" points="20,17 20,19 18,19 18,18 19,18 19,17 	"/>
	<polygon class="st11" points="18,21 20,21 20,22 16,22 16,24 15,24 15,25 14,25 14,23 15,23 15,21 16,21 16,20 17,20 17,19 18,19 	
		"/>
	<rect x="13" y="25" class="st11" width="1" height="2"/>
	<polygon class="st11" points="14,29 14,31 11,31 11,32 10,32 10,33 8,33 8,32 9,32 9,31 10,31 10,30 11,30 11,29 12,29 12,27 
		13,27 13,29 	"/>
	<polygon class="st11" points="7,33 7,39 8,39 8,38 9,38 9,37 10,37 10,35 8,35 8,33 	"/>
	<rect x="8" y="39" class="st11" width="2" height="1"/>
	<polygon class="st11" points="13,41 13,40 14,40 14,39 15,39 15,37 13,37 13,38 11,38 11,40 10,40 10,41 	"/>
	<rect x="16" y="38" class="st11" width="1" height="1"/>
	<polygon class="st11" points="19,37 20,37 20,36 22,36 22,35 24,35 24,34 23,34 23,33 21,33 21,32 20,32 20,31 18,31 18,32 19,32 
		19,33 20,33 20,35 18,35 18,36 17,36 17,38 19,38 	"/>
	<rect x="18" y="27" class="st11" width="1" height="1"/>
	<rect x="19" y="26" class="st11" width="1" height="1"/>
	<rect x="20" y="25" class="st11" width="1" height="1"/>
	<polygon class="st11" points="17,27 17,26 18,26 18,25 16,25 16,27 	"/>
	<polygon class="st9" points="7,36 9,36 9,37 8,37 8,38 7,38 	"/>
	<polygon class="st9" points="19,24 19,25 17,25 17,23 20,23 20,24 	"/>
	<g>
		<polygon class="st12" points="18,16 18,14 16,14 16,13 15,13 15,12 14,12 14,11 13,11 13,10 12,10 12,9 11,9 11,8 10,8 10,7 9,7 
			9,5 8,5 8,4 7,4 7,3 5,3 5,2 3,2 3,1 1,1 1,2 2,2 2,3 4,3 4,4 5,4 5,5 6,5 6,6 7,6 7,7 8,7 8,8 9,8 9,9 10,9 10,11 11,11 11,12 
			12,12 12,13 13,13 13,14 14,14 14,15 15,15 15,16 		"/>
		<path class="st2" d="M19,15v-2h-1v-1h-2v-2c0,0-2,0.1-2,0s0-1,0-1h-1V7h-3V5H9V4H8V3H7V2H4v1h2v1h1v1h1v2h1v1h1v2h1v1h1v1h1v1h1v1
			h1v1H19z"/>
		<rect x="2" y="1" class="st2" width="2" height="1"/>
		<rect class="st2" width="2" height="1"/>
		<rect x="2" class="st13" width="1" height="1"/>
		<rect x="4" y="1" class="st13" width="2" height="1"/>
		<rect x="7" y="2" class="st13" width="1" height="1"/>
		<rect x="8" y="3" class="st13" width="1" height="1"/>
		<rect x="9" y="4" class="st13" width="1" height="1"/>
		<polygon class="st13" points="9,6 10,6 10,5 12,5 12,6 13,6 13,7 14,7 14,8 15,8 15,9 17,9 17,10 18,10 18,11 19,11 19,12 20,12 
			20,14 17,14 17,13 14,13 14,12 15,12 15,11 14,11 14,10 11,10 11,9 12,9 12,7 10,7 10,8 9,8 		"/>
		<polygon class="st14" points="17,11 18,11 18,12 19,12 19,14 17,14 17,13 16,13 16,12 17,12 		"/>
		<polygon class="st15" points="19,14 20,14 20,16 21,16 21,17 19,17 		"/>
		<polygon class="st16" points="18,15 19,15 19,16 20,16 20,17 19,17 19,16 18,16 		"/>
	</g>
	<polygon class="st11" points="20,54 20,50 21,50 21,47 22,47 22,42 23,42 23,40 24,40 24,38 25,38 25,36 28,36 28,35 29,35 29,34 
		30,34 30,33 31,33 31,32 32,32 32,29 31,29 31,25 30,25 30,23 31,23 31,24 32,24 32,25 33,25 33,27 34,27 34,33 33,33 33,35 32,35 
		32,37 31,37 31,38 30,38 30,39 29,39 29,40 28,40 28,41 27,41 27,42 26,42 26,44 25,44 25,46 24,46 24,49 23,49 23,52 22,52 22,55 
		21,55 21,54 	"/>
	<polygon class="st11" points="25,55 28,55 28,50 29,50 29,46 30,46 30,43 29,43 29,45 28,45 28,47 27,47 27,50 26,50 26,53 25,53 	
		"/>
	<polygon class="st10" points="29,24 30,24 30,25 31,25 31,32 30,32 30,33 29,33 29,34 28,34 28,35 24,35 24,34 23,34 23,33 26,33 
		26,32 27,32 27,31 28,31 28,28 29,28 	"/>
	<polygon class="st10" points="38,35 39,35 39,39 40,39 40,42 39,42 39,39 38,39 	"/>
	<rect x="39" y="43" class="st10" width="1" height="1"/>
</g>
</svg>
