<?xml version="1.0" encoding="utf-8"?>
<!-- Generator: Adobe Illustrator 23.0.3, SVG Export Plug-In . SVG Version: 6.00 Build 0)  -->
<svg version="1.1" id="Layer_1" xmlns="http://www.w3.org/2000/svg" xmlns:xlink="http://www.w3.org/1999/xlink" x="0px" y="0px"
	 viewBox="0 0 24 24" style="enable-background:new 0 0 24 24;" xml:space="preserve">
<style type="text/css">
	.st0{fill:#414141;}
</style>
<g>
	<path class="st0" d="M12,1c6.1,0,11,4.9,11,11s-4.9,11-11,11S1,18.1,1,12S5.9,1,12,1 M12,0C5.4,0,0,5.4,0,12s5.4,12,12,12
		s12-5.4,12-12S18.6,0,12,0L12,0z"/>
</g>
<g>
	<path class="st0" d="M8.9,6.8l8.1,5.2l-8.1,5.2L8.9,6.8 M8.9,5.8c-0.5,0-1,0.4-1,1v10.4c0,0.6,0.5,1,1,1c0.2,0,0.4,0,0.5-0.2
		l8.1-5.2c0.6-0.4,0.6-1.3,0-1.7L9.5,6C9.3,5.9,9.1,5.8,8.9,5.8L8.9,5.8z"/>
</g>
</svg>
